<?xml version="1.0" standalone="no"?>
<!DOCTYPE svg PUBLIC "-//W3C//DTD SVG 20010904//EN"
 "http://www.w3.org/TR/2001/REC-SVG-20010904/DTD/svg10.dtd">
<svg version="1.0" xmlns="http://www.w3.org/2000/svg"
 width="520.000000pt" height="520.000000pt" viewBox="0 0 520.000000 520.000000"
 preserveAspectRatio="xMidYMid meet">
<metadata>
Created by potrace 1.14, written by Peter Selinger 2001-2017
</metadata>
<g transform="translate(0.000000,520.000000) scale(0.100000,-0.100000)"
fill="#000000" stroke="none">
<path d="M2131 4579 c-164 -21 -357 -89 -501 -176 -258 -157 -466 -413 -560
-693 -63 -187 -63 -182 -69 -850 l-6 -615 -109 -818 c-60 -450 -106 -820 -103
-823 3 -3 373 88 824 202 l818 208 455 7 c371 5 468 9 523 23 458 109 815 431
956 859 65 199 66 207 66 902 0 694 -1 703 -65 897 -153 459 -561 801 -1042
872 -86 13 -198 16 -614 15 -280 -1 -538 -5 -573 -10z m734 -629 c228 -14 350
-55 446 -150 51 -51 101 -145 124 -235 39 -151 39 -460 0 -610 -53 -201 -162
-312 -362 -367 -67 -18 -113 -22 -335 -26 l-258 -4 0 -439 0 -439 -160 0 -160
0 0 1140 0 1140 278 0 c152 0 345 -5 427 -10z"/>
<path d="M2480 3260 l0 -410 210 0 c233 0 287 8 355 51 65 41 92 103 107 248
9 83 9 136 0 213 -14 131 -26 170 -64 214 -67 76 -145 94 -420 94 l-188 0 0
-410z"/>
</g>
</svg>
